<mxfile host="app.diagrams.net" modified="2020-08-16T17:29:15.419Z" agent="5.0 (Windows)" etag="mv0LFKOMDavf-Wxad9Vh" version="13.6.2" type="github">
  <diagram id="21BZO95zSgXNeqhN6_xH" name="Page-1">
    <mxGraphModel dx="868" dy="429" grid="1" gridSize="10" guides="1" tooltips="1" connect="1" arrows="1" fold="1" page="1" pageScale="1" pageWidth="1200" pageHeight="1600" math="0" shadow="0">
      <root>
        <mxCell id="0" />
        <mxCell id="1" parent="0" />
        <mxCell id="rO249hoXGiGeEB3--daH-2" value="" style="whiteSpace=wrap;html=1;aspect=fixed;" vertex="1" parent="1">
          <mxGeometry x="200" y="30" width="140" height="140" as="geometry" />
        </mxCell>
        <mxCell id="rO249hoXGiGeEB3--daH-1" value="Blogs " style="shape=note;whiteSpace=wrap;html=1;backgroundOutline=1;darkOpacity=0.05;" vertex="1" parent="1">
          <mxGeometry x="210" y="60" width="80" height="100" as="geometry" />
        </mxCell>
        <mxCell id="rO249hoXGiGeEB3--daH-3" value="&lt;div&gt;&lt;br&gt;&lt;/div&gt;&lt;div&gt;index&lt;br&gt;&lt;/div&gt;" style="text;html=1;align=center;verticalAlign=middle;resizable=0;points=[];autosize=1;" vertex="1" parent="1">
          <mxGeometry x="290" y="110" width="40" height="30" as="geometry" />
        </mxCell>
        <mxCell id="rO249hoXGiGeEB3--daH-4" value="sh4" style="whiteSpace=wrap;html=1;aspect=fixed;" vertex="1" parent="1">
          <mxGeometry x="410" y="30" width="60" height="60" as="geometry" />
        </mxCell>
        <mxCell id="rO249hoXGiGeEB3--daH-6" value="Sh3" style="whiteSpace=wrap;html=1;aspect=fixed;" vertex="1" parent="1">
          <mxGeometry x="410" y="110" width="60" height="60" as="geometry" />
        </mxCell>
        <mxCell id="rO249hoXGiGeEB3--daH-7" value="Shard2" style="whiteSpace=wrap;html=1;aspect=fixed;" vertex="1" parent="1">
          <mxGeometry x="360" y="190" width="60" height="60" as="geometry" />
        </mxCell>
        <mxCell id="rO249hoXGiGeEB3--daH-8" value="Shards1" style="whiteSpace=wrap;html=1;aspect=fixed;" vertex="1" parent="1">
          <mxGeometry x="250" y="190" width="60" height="60" as="geometry" />
        </mxCell>
        <mxCell id="rO249hoXGiGeEB3--daH-9" value="Replica" style="shape=parallelogram;perimeter=parallelogramPerimeter;whiteSpace=wrap;html=1;fixedSize=1;" vertex="1" parent="1">
          <mxGeometry x="490" y="30" width="80" height="50" as="geometry" />
        </mxCell>
        <mxCell id="rO249hoXGiGeEB3--daH-10" value="&lt;div&gt;&lt;br&gt;&lt;/div&gt;&lt;div&gt;index&lt;br&gt;&lt;/div&gt;" style="text;html=1;align=center;verticalAlign=middle;resizable=0;points=[];autosize=1;" vertex="1" parent="1">
          <mxGeometry x="410" y="30" width="40" height="30" as="geometry" />
        </mxCell>
        <mxCell id="rO249hoXGiGeEB3--daH-11" value="&lt;div&gt;&lt;br&gt;&lt;/div&gt;&lt;div&gt;index&lt;br&gt;&lt;/div&gt;" style="text;html=1;align=center;verticalAlign=middle;resizable=0;points=[];autosize=1;" vertex="1" parent="1">
          <mxGeometry x="420" y="140" width="40" height="30" as="geometry" />
        </mxCell>
        <mxCell id="rO249hoXGiGeEB3--daH-12" value="&lt;div&gt;&lt;br&gt;&lt;/div&gt;&lt;div&gt;index&lt;br&gt;&lt;/div&gt;" style="text;html=1;align=center;verticalAlign=middle;resizable=0;points=[];autosize=1;" vertex="1" parent="1">
          <mxGeometry x="370" y="220" width="40" height="30" as="geometry" />
        </mxCell>
        <mxCell id="rO249hoXGiGeEB3--daH-13" value="&lt;div&gt;&lt;br&gt;&lt;/div&gt;&lt;div&gt;index&lt;br&gt;&lt;/div&gt;" style="text;html=1;align=center;verticalAlign=middle;resizable=0;points=[];autosize=1;" vertex="1" parent="1">
          <mxGeometry x="260" y="220" width="40" height="30" as="geometry" />
        </mxCell>
        <mxCell id="rO249hoXGiGeEB3--daH-14" value="Replica" style="shape=parallelogram;perimeter=parallelogramPerimeter;whiteSpace=wrap;html=1;fixedSize=1;" vertex="1" parent="1">
          <mxGeometry x="490" y="100" width="80" height="50" as="geometry" />
        </mxCell>
        <mxCell id="rO249hoXGiGeEB3--daH-15" value="Replica" style="shape=parallelogram;perimeter=parallelogramPerimeter;whiteSpace=wrap;html=1;fixedSize=1;" vertex="1" parent="1">
          <mxGeometry x="450" y="190" width="80" height="50" as="geometry" />
        </mxCell>
        <mxCell id="rO249hoXGiGeEB3--daH-16" value="Replica" style="shape=parallelogram;perimeter=parallelogramPerimeter;whiteSpace=wrap;html=1;fixedSize=1;" vertex="1" parent="1">
          <mxGeometry x="250" y="260" width="80" height="50" as="geometry" />
        </mxCell>
        <mxCell id="rO249hoXGiGeEB3--daH-17" value="Replica" style="shape=parallelogram;perimeter=parallelogramPerimeter;whiteSpace=wrap;html=1;fixedSize=1;" vertex="1" parent="1">
          <mxGeometry x="360" y="260" width="80" height="50" as="geometry" />
        </mxCell>
        <mxCell id="rO249hoXGiGeEB3--daH-21" value="" style="shape=partialRectangle;whiteSpace=wrap;html=1;bottom=1;right=1;left=1;top=0;fillColor=none;routingCenterX=-0.5;" vertex="1" parent="1">
          <mxGeometry x="60" width="615" height="330" as="geometry" />
        </mxCell>
        <mxCell id="rO249hoXGiGeEB3--daH-22" value="Cluster" style="text;html=1;align=center;verticalAlign=middle;resizable=0;points=[];autosize=1;" vertex="1" parent="1">
          <mxGeometry x="580" y="220" width="60" height="20" as="geometry" />
        </mxCell>
      </root>
    </mxGraphModel>
  </diagram>
</mxfile>
